# Blender 4.3.0
# www.blender.org
mtllib stage03.mtl
o stage03
v 17.352942 5.000000 0.999999
v 17.352942 7.000000 0.999999
v 17.352942 5.000000 -1.000001
v 17.352942 7.000000 -1.000001
v 19.352942 5.000000 0.999999
v 19.352942 7.000000 0.999999
v 19.352942 5.000000 -1.000001
v 19.352942 7.000000 -1.000001
v -0.647058 -1.000000 1.000001
v -0.647058 1.000000 1.000001
v -0.647058 -1.000000 -0.999999
v -0.647058 1.000000 -0.999999
v 1.352942 -1.000000 1.000000
v 1.352942 1.000000 1.000000
v 1.352942 -1.000000 -1.000000
v 1.352942 1.000000 -1.000000
v 3.352942 -1.000000 -1.000000
v 3.352942 1.000000 -1.000000
v 3.352942 -1.000000 1.000000
v 3.352942 1.000000 1.000000
v 1.352942 -1.000000 -0.999999
v 1.352942 1.000000 -0.999999
v 1.352942 -1.000000 1.000001
v 1.352942 1.000000 1.000001
v 5.352942 -1.000000 -1.000000
v 5.352942 1.000000 -1.000000
v 5.352942 -1.000000 1.000000
v 5.352942 1.000000 1.000000
v 3.352942 -1.000000 -0.999999
v 3.352942 1.000000 -0.999999
v 3.352942 -1.000000 1.000001
v 3.352942 1.000000 1.000001
v 7.352942 -1.000000 -1.000000
v 7.352942 1.000000 -1.000000
v 7.352942 -1.000000 1.000000
v 7.352942 1.000000 1.000000
v 5.352942 -1.000000 -0.999999
v 5.352942 1.000000 -0.999999
v 5.352942 -1.000000 1.000000
v 5.352942 1.000000 1.000000
v 9.352942 -1.000000 -1.000000
v 9.352942 1.000000 -1.000000
v 9.352942 -1.000000 1.000000
v 9.352942 1.000000 1.000000
v 7.352942 -1.000000 -1.000000
v 7.352942 1.000000 -1.000000
v 7.352942 -1.000000 1.000000
v 7.352942 1.000000 1.000000
v 9.352942 -1.000000 -1.000000
v 9.352942 1.000000 -1.000000
v 9.352942 -1.000000 1.000000
v 9.352942 1.000000 1.000000
v 7.352942 -1.000000 -1.000000
v 7.352942 1.000000 -1.000000
v 7.352942 -1.000000 1.000000
v 7.352942 1.000000 1.000000
v 9.352942 -1.000000 -1.000000
v 9.352942 1.000000 -1.000000
v 9.352942 -1.000000 1.000000
v 9.352942 1.000000 1.000000
v 7.352942 -1.000000 -1.000000
v 7.352942 1.000000 -1.000000
v 7.352942 -1.000000 1.000000
v 7.352942 1.000000 1.000000
v 11.352942 -1.000000 -1.000000
v 11.352942 1.000000 -1.000000
v 11.352942 -1.000000 1.000000
v 11.352942 1.000000 1.000000
v 9.352942 -1.000000 -1.000000
v 9.352942 1.000000 -1.000000
v 9.352942 -1.000000 1.000000
v 9.352942 1.000000 1.000000
v 11.352942 1.000000 -1.000000
v 11.352942 3.000000 -1.000000
v 11.352942 1.000000 1.000000
v 11.352942 3.000000 1.000000
v 9.352942 1.000000 -1.000000
v 9.352942 3.000000 -1.000000
v 9.352942 1.000000 1.000000
v 9.352942 3.000000 1.000000
v 11.352942 3.000000 -1.000000
v 11.352942 5.000000 -1.000000
v 11.352942 3.000000 1.000000
v 11.352942 5.000000 1.000000
v 9.352942 3.000000 -1.000000
v 9.352942 5.000000 -1.000000
v 9.352942 3.000000 1.000000
v 9.352942 5.000000 1.000000
v 11.352942 5.000000 -1.000000
v 11.352942 7.000000 -1.000000
v 11.352942 5.000000 1.000000
v 11.352942 7.000000 1.000000
v 9.352942 5.000000 -1.000000
v 9.352942 7.000000 -1.000000
v 9.352942 5.000000 1.000000
v 9.352942 7.000000 1.000000
v 9.352942 5.000000 -1.000000
v 9.352942 7.000000 -1.000000
v 9.352942 5.000000 1.000000
v 9.352942 7.000000 1.000000
v 7.352942 5.000000 -1.000000
v 7.352942 7.000000 -1.000000
v 7.352942 5.000000 1.000000
v 7.352942 7.000000 1.000000
v 7.352942 5.000000 -1.000000
v 7.352942 7.000000 -1.000000
v 7.352942 5.000000 1.000000
v 7.352942 7.000000 1.000000
v 5.352942 5.000000 -0.999999
v 5.352942 7.000000 -0.999999
v 5.352942 5.000000 1.000000
v 5.352942 7.000000 1.000000
v 13.352942 5.000000 -1.000000
v 13.352942 7.000000 -1.000000
v 13.352942 5.000000 0.999999
v 13.352942 7.000000 0.999999
v 11.352942 5.000000 -1.000000
v 11.352942 7.000000 -1.000000
v 11.352942 5.000000 1.000000
v 11.352942 7.000000 1.000000
v 15.352942 5.000000 -1.000001
v 15.352942 7.000000 -1.000001
v 15.352942 5.000000 0.999999
v 15.352942 7.000000 0.999999
v 13.352942 5.000000 -1.000000
v 13.352942 7.000000 -1.000000
v 13.352942 5.000000 1.000000
v 13.352942 7.000000 1.000000
v 17.352942 5.000000 -1.000001
v 17.352942 7.000000 -1.000001
v 17.352942 5.000000 0.999999
v 17.352942 7.000000 0.999999
v 15.352942 5.000000 -1.000000
v 15.352942 7.000000 -1.000000
v 15.352942 5.000000 1.000000
v 15.352942 7.000000 1.000000
vn -1.0000 -0.0000 -0.0000
vn -0.0000 -0.0000 -1.0000
vn 1.0000 -0.0000 -0.0000
vn -0.0000 -0.0000 1.0000
vn -0.0000 -1.0000 -0.0000
vn -0.0000 1.0000 -0.0000
vt 0.139896 0.727784
vt 0.377685 0.727784
vt 0.377685 0.489503
vt 0.139896 0.489503
vt 0.616210 0.966795
vt 0.616210 0.729007
vt 0.377930 0.729007
vt 0.377930 0.966795
vt 0.853757 0.728272
vt 0.615969 0.728272
vt 0.615969 0.489992
vt 0.853757 0.489992
vt 0.616210 0.251956
vt 0.616210 0.489745
vt 0.377930 0.489745
vt 0.377930 0.251956
vt 0.377930 0.251463
vt 0.616210 0.251463
vt 0.616210 0.013674
vt 0.377930 0.013674
vt 0.616210 0.728025
vt 0.377930 0.728025
vt 0.377930 0.490236
vt 0.616210 0.490236
s 0
usemtl block.016
f 1/1/1 2/2/1 4/3/1 3/4/1
f 3/5/2 4/6/2 8/7/2 7/8/2
f 7/9/3 8/10/3 6/11/3 5/12/3
f 5/13/4 6/14/4 2/15/4 1/16/4
f 3/17/5 7/18/5 5/19/5 1/20/5
usemtl goal.016
f 8/21/6 4/22/6 2/23/6 6/24/6
usemtl block
f 9/1/1 10/2/1 12/3/1 11/4/1
f 11/5/2 12/6/2 16/7/2 15/8/2
f 15/9/3 16/10/3 14/11/3 13/12/3
f 13/13/4 14/14/4 10/15/4 9/16/4
f 11/17/5 15/18/5 13/19/5 9/20/5
usemtl start
f 16/21/6 12/22/6 10/23/6 14/24/6
usemtl block.001
f 17/1/3 18/2/3 20/3/3 19/4/3
f 19/5/4 20/6/4 24/7/4 23/8/4
f 23/9/1 24/10/1 22/11/1 21/12/1
f 21/13/2 22/14/2 18/15/2 17/16/2
f 19/17/5 23/18/5 21/19/5 17/20/5
f 24/21/6 20/22/6 18/23/6 22/24/6
usemtl block.002
f 25/1/3 26/2/3 28/3/3 27/4/3
f 27/5/4 28/6/4 32/7/4 31/8/4
f 31/9/1 32/10/1 30/11/1 29/12/1
f 29/13/2 30/14/2 26/15/2 25/16/2
f 27/17/5 31/18/5 29/19/5 25/20/5
f 32/21/6 28/22/6 26/23/6 30/24/6
usemtl block.003
f 33/1/3 34/2/3 36/3/3 35/4/3
f 35/5/4 36/6/4 40/7/4 39/8/4
f 39/9/1 40/10/1 38/11/1 37/12/1
f 37/13/2 38/14/2 34/15/2 33/16/2
f 35/17/5 39/18/5 37/19/5 33/20/5
f 40/21/6 36/22/6 34/23/6 38/24/6
usemtl block.004
f 41/1/3 42/2/3 44/3/3 43/4/3
f 43/5/4 44/6/4 48/7/4 47/8/4
f 47/9/1 48/10/1 46/11/1 45/12/1
f 45/13/2 46/14/2 42/15/2 41/16/2
f 43/17/5 47/18/5 45/19/5 41/20/5
f 48/21/6 44/22/6 42/23/6 46/24/6
usemtl block.005
f 49/1/3 50/2/3 52/3/3 51/4/3
f 51/5/4 52/6/4 56/7/4 55/8/4
f 55/9/1 56/10/1 54/11/1 53/12/1
f 53/13/2 54/14/2 50/15/2 49/16/2
f 51/17/5 55/18/5 53/19/5 49/20/5
f 56/21/6 52/22/6 50/23/6 54/24/6
usemtl block.006
f 57/1/3 58/2/3 60/3/3 59/4/3
f 59/5/4 60/6/4 64/7/4 63/8/4
f 63/9/1 64/10/1 62/11/1 61/12/1
f 61/13/2 62/14/2 58/15/2 57/16/2
f 59/17/5 63/18/5 61/19/5 57/20/5
f 64/21/6 60/22/6 58/23/6 62/24/6
usemtl block.007
f 65/1/3 66/2/3 68/3/3 67/4/3
f 67/5/4 68/6/4 72/7/4 71/8/4
f 71/9/1 72/10/1 70/11/1 69/12/1
f 69/13/2 70/14/2 66/15/2 65/16/2
f 67/17/5 71/18/5 69/19/5 65/20/5
f 72/21/6 68/22/6 66/23/6 70/24/6
usemtl block.008
f 73/1/3 74/2/3 76/3/3 75/4/3
f 75/5/4 76/6/4 80/7/4 79/8/4
f 79/9/1 80/10/1 78/11/1 77/12/1
f 77/13/2 78/14/2 74/15/2 73/16/2
f 75/17/5 79/18/5 77/19/5 73/20/5
f 80/21/6 76/22/6 74/23/6 78/24/6
usemtl block.009
f 81/1/3 82/2/3 84/3/3 83/4/3
f 83/5/4 84/6/4 88/7/4 87/8/4
f 87/9/1 88/10/1 86/11/1 85/12/1
f 85/13/2 86/14/2 82/15/2 81/16/2
f 83/17/5 87/18/5 85/19/5 81/20/5
f 88/21/6 84/22/6 82/23/6 86/24/6
usemtl block.010
f 89/1/3 90/2/3 92/3/3 91/4/3
f 91/5/4 92/6/4 96/7/4 95/8/4
f 95/9/1 96/10/1 94/11/1 93/12/1
f 93/13/2 94/14/2 90/15/2 89/16/2
f 91/17/5 95/18/5 93/19/5 89/20/5
f 96/21/6 92/22/6 90/23/6 94/24/6
usemtl block.011
f 97/1/3 98/2/3 100/3/3 99/4/3
f 99/5/4 100/6/4 104/7/4 103/8/4
f 103/9/1 104/10/1 102/11/1 101/12/1
f 101/13/2 102/14/2 98/15/2 97/16/2
f 99/17/5 103/18/5 101/19/5 97/20/5
f 104/21/6 100/22/6 98/23/6 102/24/6
usemtl block.012
f 105/1/3 106/2/3 108/3/3 107/4/3
f 107/5/4 108/6/4 112/7/4 111/8/4
f 111/9/1 112/10/1 110/11/1 109/12/1
f 109/13/2 110/14/2 106/15/2 105/16/2
f 107/17/5 111/18/5 109/19/5 105/20/5
f 112/21/6 108/22/6 106/23/6 110/24/6
usemtl block.013
f 113/1/3 114/2/3 116/3/3 115/4/3
f 115/5/4 116/6/4 120/7/4 119/8/4
f 119/9/1 120/10/1 118/11/1 117/12/1
f 117/13/2 118/14/2 114/15/2 113/16/2
f 115/17/5 119/18/5 117/19/5 113/20/5
f 120/21/6 116/22/6 114/23/6 118/24/6
usemtl block.014
f 121/1/3 122/2/3 124/3/3 123/4/3
f 123/5/4 124/6/4 128/7/4 127/8/4
f 127/9/1 128/10/1 126/11/1 125/12/1
f 125/13/2 126/14/2 122/15/2 121/16/2
f 123/17/5 127/18/5 125/19/5 121/20/5
f 128/21/6 124/22/6 122/23/6 126/24/6
usemtl block.015
f 129/1/3 130/2/3 132/3/3 131/4/3
f 131/5/4 132/6/4 136/7/4 135/8/4
f 135/9/1 136/10/1 134/11/1 133/12/1
f 133/13/2 134/14/2 130/15/2 129/16/2
f 131/17/5 135/18/5 133/19/5 129/20/5
f 136/21/6 132/22/6 130/23/6 134/24/6
