# Blender 3.6.2
# www.blender.org
mtllib one_block.mtl
o one_block
v -1.000000 -1.000000 1.000000
v -1.000000 1.000000 1.000000
v -1.000000 -1.000000 -1.000000
v -1.000000 1.000000 -1.000000
v 1.000000 -1.000000 1.000000
v 1.000000 1.000000 1.000000
v 1.000000 -1.000000 -1.000000
v 1.000000 1.000000 -1.000000
vn -1.0000 -0.0000 -0.0000
vn -0.0000 -0.0000 -1.0000
vn 1.0000 -0.0000 -0.0000
vn -0.0000 -0.0000 1.0000
vn -0.0000 -1.0000 -0.0000
vn -0.0000 1.0000 -0.0000
vt 0.139650 0.489260
vt 0.377930 0.489260
vt 0.377930 0.727539
vt 0.139650 0.727539
vt 0.377444 0.966796
vt 0.377444 0.729006
vt 0.616210 0.729005
vt 0.616210 0.966796
vt 0.854491 0.728027
vt 0.616700 0.728027
vt 0.616700 0.489748
vt 0.854491 0.489748
vt 0.616210 0.251954
vt 0.616210 0.489258
vt 0.377930 0.489258
vt 0.377930 0.251954
vt 0.377931 0.013672
vt 0.616210 0.013672
vt 0.616210 0.251464
vt 0.377931 0.251464
vt 0.616211 0.727539
vt 0.377931 0.727539
vt 0.377931 0.490234
vt 0.616211 0.490234
s 0
usemtl one_block
f 1/1/1 2/2/1 4/3/1 3/4/1
f 3/5/2 4/6/2 8/7/2 7/8/2
f 7/9/3 8/10/3 6/11/3 5/12/3
f 5/13/4 6/14/4 2/15/4 1/16/4
f 3/17/5 7/18/5 5/19/5 1/20/5
f 8/21/6 4/22/6 2/23/6 6/24/6
